<svg xmlns="http://www.w3.org/2000/svg" viewBox="0 0 1200 644" width="1200" height="644" role="img" aria-label="Tech stack: Erp: ERPNext, Frappe Framework, Frappe UI, Bench; Languages: Python, JavaScript, SQL, Jinja, HTML / CSS; Data: MariaDB, MySQL, Redis; Integration: REST APIs, Custom APIs, Webhooks; Devops: Jenkins, ArgoCD, Nginx, Supervisor; Git: Git, GitHub, GitLab, Bitbucket"><title>Tech stack: Erp: ERPNext, Frappe Framework, Frappe UI, Bench; Languages: Python, JavaScript, SQL, Jinja, HTML / CSS; Data: MariaDB, MySQL, Redis; Integration: REST APIs, Custom APIs, Webhooks; Devops: Jenkins, ArgoCD, Nginx, Supervisor; Git: Git, GitHub, GitLab, Bitbucket</title><style>
.sans{font-family:Inter,'Segoe UI',system-ui,-apple-system,'Helvetica Neue',Arial,sans-serif}
.mono{font-family:ui-monospace,'SF Mono','Cascadia Code',Menlo,Consolas,'DejaVu Sans Mono',monospace}
.pre{white-space:pre}
@keyframes bob{0%,100%{transform:translateY(0)}50%{transform:translateY(-7px)}}
@keyframes bobs{0%,100%{transform:translateY(0)}50%{transform:translateY(-4px)}}
@keyframes flow{to{stroke-dashoffset:-48}}
@keyframes blink{0%,100%{opacity:.25}50%{opacity:1}}
@keyframes rise{from{opacity:0;transform:translateY(18px)}to{opacity:1;transform:translateY(0)}}
@keyframes fadein{from{opacity:0}to{opacity:1}}
@keyframes floor{from{transform:translateY(0);opacity:0}15%{opacity:1}to{transform:translateY(var(--d));opacity:1}}
@keyframes shadow{0%,100%{transform:scale(1);opacity:.5}50%{transform:scale(.8);opacity:.28}}
.bob{animation:bob 5s ease-in-out infinite}
.bobs{animation:bobs 4s ease-in-out infinite}
.flow{stroke-dasharray:6 10;animation:flow 1.6s linear infinite}
.blink{animation:blink 2.4s ease-in-out infinite}
.rise{animation:rise .8s cubic-bezier(.2,.7,.2,1) both}
.fadein{animation:fadein .5s ease-out both}
.shadow{transform-box:fill-box;transform-origin:center;animation:shadow 5s ease-in-out infinite}
@media (prefers-reduced-motion:reduce){*{animation:none!important}}
</style><defs><linearGradient id="bg" x1="0" y1="0" x2="1" y2="1"><stop offset="0" stop-color="#1A212B"/><stop offset="1" stop-color="#0C1118"/></linearGradient><linearGradient id="name" x1="0" y1="0" x2="1" y2="1"><stop offset="0" stop-color="#FFFFFF"/><stop offset="1" stop-color="#CFE3F5"/></linearGradient><linearGradient id="brand" x1="0" y1="0" x2="1" y2="1"><stop offset="0" stop-color="#5B9DD9"/><stop offset=".55" stop-color="#4F8FD0"/><stop offset="1" stop-color="#3FB6A8"/></linearGradient><linearGradient id="scRing" gradientUnits="userSpaceOnUse" x1="-36" y1="-36" x2="36" y2="36"><stop offset="0" stop-color="#f2a35e"/><stop offset=".5" stop-color="#e8843f"/><stop offset="1" stop-color="#2bb6a8"/></linearGradient><radialGradient id="scCore" cx=".5" cy=".42" r=".62"><stop offset="0" stop-color="#ffd9a8"/><stop offset=".45" stop-color="#f2a35e"/><stop offset="1" stop-color="#d9743a"/></radialGradient><radialGradient id="scGlow" cx=".5" cy=".5" r=".5"><stop offset="0" stop-color="#e8843f" stop-opacity=".4"/><stop offset="1" stop-color="#e8843f" stop-opacity="0"/></radialGradient><linearGradient id="fade" x1="0" y1="0" x2="0" y2="1"><stop offset="0" stop-color="#fff" stop-opacity="0"/><stop offset=".55" stop-color="#fff" stop-opacity="1"/></linearGradient><clipPath id="clip"><rect width="1200" height="644" rx="28"/></clipPath></defs><g clip-path="url(#clip)"><rect width="1200" height="644" fill="url(#bg)"/><text x="60" y="72" class="mono" font-size="16" fill="#F2A35E" letter-spacing="2">03</text><text x="104" y="72" class="sans" font-size="34" font-weight="700" fill="#E6EDF3">Tech stack</text><text x="1140" y="72" class="mono" font-size="14" fill="#9FB0C3" text-anchor="end">what I build with</text><text x="60" y="150" class="mono" font-size="13" fill="#9FB0C3" letter-spacing="2.5">ERP</text><g class="bobs" style="animation-delay:0.00s"><rect x="200" y="126" width="131" height="50" rx="13" fill="#080B10"/><rect x="200" y="124" width="131" height="50" rx="13" fill="#161D27"/><rect x="200" y="118" width="131" height="50" rx="13" fill="#222B37" stroke="#3D4B5E" stroke-width="1.2"/><rect x="210" y="119.5" width="111" height="1.5" rx="1" fill="#FFFFFF" opacity=".28"/><circle cx="222" cy="143" r="5" fill="#5B9DD9"/><text x="238" y="149" class="sans" font-size="17" font-weight="600" fill="#E6EDF3">ERPNext</text></g><g class="bobs" style="animation-delay:-0.31s"><rect x="346.8" y="126" width="224" height="50" rx="13" fill="#080B10"/><rect x="346.8" y="124" width="224" height="50" rx="13" fill="#161D27"/><rect x="346.8" y="118" width="224" height="50" rx="13" fill="#222B37" stroke="#3D4B5E" stroke-width="1.2"/><rect x="356.8" y="119.5" width="204" height="1.5" rx="1" fill="#FFFFFF" opacity=".28"/><circle cx="368.8" cy="143" r="5" fill="#5B9DD9"/><text x="384.8" y="149" class="sans" font-size="17" font-weight="600" fill="#E6EDF3">Frappe Framework</text></g><g class="bobs" style="animation-delay:-0.62s"><rect x="587.2" y="126" width="152" height="50" rx="13" fill="#080B10"/><rect x="587.2" y="124" width="152" height="50" rx="13" fill="#161D27"/><rect x="587.2" y="118" width="152" height="50" rx="13" fill="#222B37" stroke="#3D4B5E" stroke-width="1.2"/><rect x="597.2" y="119.5" width="132" height="1.5" rx="1" fill="#FFFFFF" opacity=".28"/><circle cx="609.2" cy="143" r="5" fill="#5B9DD9"/><text x="625.2" y="149" class="sans" font-size="17" font-weight="600" fill="#E6EDF3">Frappe UI</text></g><g class="bobs" style="animation-delay:-0.93s"><rect x="754.8000000000001" y="126" width="110" height="50" rx="13" fill="#080B10"/><rect x="754.8000000000001" y="124" width="110" height="50" rx="13" fill="#161D27"/><rect x="754.8000000000001" y="118" width="110" height="50" rx="13" fill="#222B37" stroke="#3D4B5E" stroke-width="1.2"/><rect x="764.8000000000001" y="119.5" width="90" height="1.5" rx="1" fill="#FFFFFF" opacity=".28"/><circle cx="776.8000000000001" cy="143" r="5" fill="#5B9DD9"/><text x="792.8000000000001" y="149" class="sans" font-size="17" font-weight="600" fill="#E6EDF3">Bench</text></g><text x="60" y="234" class="mono" font-size="13" fill="#9FB0C3" letter-spacing="2.5">LANGUAGES</text><g class="bobs" style="animation-delay:-1.24s"><rect x="200" y="210" width="120" height="50" rx="13" fill="#080B10"/><rect x="200" y="208" width="120" height="50" rx="13" fill="#161D27"/><rect x="200" y="202" width="120" height="50" rx="13" fill="#222B37" stroke="#3D4B5E" stroke-width="1.2"/><rect x="210" y="203.5" width="100" height="1.5" rx="1" fill="#FFFFFF" opacity=".28"/><circle cx="222" cy="227" r="5" fill="#3FB6A8"/><text x="238" y="233" class="sans" font-size="17" font-weight="600" fill="#E6EDF3">Python</text></g><g class="bobs" style="animation-delay:-1.55s"><rect x="336.4" y="210" width="162" height="50" rx="13" fill="#080B10"/><rect x="336.4" y="208" width="162" height="50" rx="13" fill="#161D27"/><rect x="336.4" y="202" width="162" height="50" rx="13" fill="#222B37" stroke="#3D4B5E" stroke-width="1.2"/><rect x="346.4" y="203.5" width="142" height="1.5" rx="1" fill="#FFFFFF" opacity=".28"/><circle cx="358.4" cy="227" r="5" fill="#3FB6A8"/><text x="374.4" y="233" class="sans" font-size="17" font-weight="600" fill="#E6EDF3">JavaScript</text></g><g class="bobs" style="animation-delay:-1.86s"><rect x="514.4" y="210" width="89" height="50" rx="13" fill="#080B10"/><rect x="514.4" y="208" width="89" height="50" rx="13" fill="#161D27"/><rect x="514.4" y="202" width="89" height="50" rx="13" fill="#222B37" stroke="#3D4B5E" stroke-width="1.2"/><rect x="524.4" y="203.5" width="69" height="1.5" rx="1" fill="#FFFFFF" opacity=".28"/><circle cx="536.4" cy="227" r="5" fill="#3FB6A8"/><text x="552.4" y="233" class="sans" font-size="17" font-weight="600" fill="#E6EDF3">SQL</text></g><g class="bobs" style="animation-delay:-2.17s"><rect x="619.6" y="210" width="110" height="50" rx="13" fill="#080B10"/><rect x="619.6" y="208" width="110" height="50" rx="13" fill="#161D27"/><rect x="619.6" y="202" width="110" height="50" rx="13" fill="#222B37" stroke="#3D4B5E" stroke-width="1.2"/><rect x="629.6" y="203.5" width="90" height="1.5" rx="1" fill="#FFFFFF" opacity=".28"/><circle cx="641.6" cy="227" r="5" fill="#3FB6A8"/><text x="657.6" y="233" class="sans" font-size="17" font-weight="600" fill="#E6EDF3">Jinja</text></g><g class="bobs" style="animation-delay:-2.48s"><rect x="745.6" y="210" width="162" height="50" rx="13" fill="#080B10"/><rect x="745.6" y="208" width="162" height="50" rx="13" fill="#161D27"/><rect x="745.6" y="202" width="162" height="50" rx="13" fill="#222B37" stroke="#3D4B5E" stroke-width="1.2"/><rect x="755.6" y="203.5" width="142" height="1.5" rx="1" fill="#FFFFFF" opacity=".28"/><circle cx="767.6" cy="227" r="5" fill="#3FB6A8"/><text x="783.6" y="233" class="sans" font-size="17" font-weight="600" fill="#E6EDF3">HTML / CSS</text></g><text x="60" y="318" class="mono" font-size="13" fill="#9FB0C3" letter-spacing="2.5">DATA</text><g class="bobs" style="animation-delay:-2.79s"><rect x="200" y="294" width="131" height="50" rx="13" fill="#080B10"/><rect x="200" y="292" width="131" height="50" rx="13" fill="#161D27"/><rect x="200" y="286" width="131" height="50" rx="13" fill="#222B37" stroke="#3D4B5E" stroke-width="1.2"/><rect x="210" y="287.5" width="111" height="1.5" rx="1" fill="#FFFFFF" opacity=".28"/><circle cx="222" cy="311" r="5" fill="#F2A35E"/><text x="238" y="317" class="sans" font-size="17" font-weight="600" fill="#E6EDF3">MariaDB</text></g><g class="bobs" style="animation-delay:-3.10s"><rect x="346.8" y="294" width="110" height="50" rx="13" fill="#080B10"/><rect x="346.8" y="292" width="110" height="50" rx="13" fill="#161D27"/><rect x="346.8" y="286" width="110" height="50" rx="13" fill="#222B37" stroke="#3D4B5E" stroke-width="1.2"/><rect x="356.8" y="287.5" width="90" height="1.5" rx="1" fill="#FFFFFF" opacity=".28"/><circle cx="368.8" cy="311" r="5" fill="#F2A35E"/><text x="384.8" y="317" class="sans" font-size="17" font-weight="600" fill="#E6EDF3">MySQL</text></g><g class="bobs" style="animation-delay:-3.41s"><rect x="472.8" y="294" width="110" height="50" rx="13" fill="#080B10"/><rect x="472.8" y="292" width="110" height="50" rx="13" fill="#161D27"/><rect x="472.8" y="286" width="110" height="50" rx="13" fill="#222B37" stroke="#3D4B5E" stroke-width="1.2"/><rect x="482.8" y="287.5" width="90" height="1.5" rx="1" fill="#FFFFFF" opacity=".28"/><circle cx="494.8" cy="311" r="5" fill="#F2A35E"/><text x="510.8" y="317" class="sans" font-size="17" font-weight="600" fill="#E6EDF3">Redis</text></g><text x="60" y="402" class="mono" font-size="13" fill="#9FB0C3" letter-spacing="2.5">INTEGRATION</text><g class="bobs" style="animation-delay:-3.72s"><rect x="200" y="378" width="152" height="50" rx="13" fill="#080B10"/><rect x="200" y="376" width="152" height="50" rx="13" fill="#161D27"/><rect x="200" y="370" width="152" height="50" rx="13" fill="#222B37" stroke="#3D4B5E" stroke-width="1.2"/><rect x="210" y="371.5" width="132" height="1.5" rx="1" fill="#FFFFFF" opacity=".28"/><circle cx="222" cy="395" r="5" fill="#3FB6A8"/><text x="238" y="401" class="sans" font-size="17" font-weight="600" fill="#E6EDF3">REST APIs</text></g><g class="bobs" style="animation-delay:-4.03s"><rect x="367.6" y="378" width="172" height="50" rx="13" fill="#080B10"/><rect x="367.6" y="376" width="172" height="50" rx="13" fill="#161D27"/><rect x="367.6" y="370" width="172" height="50" rx="13" fill="#222B37" stroke="#3D4B5E" stroke-width="1.2"/><rect x="377.6" y="371.5" width="152" height="1.5" rx="1" fill="#FFFFFF" opacity=".28"/><circle cx="389.6" cy="395" r="5" fill="#3FB6A8"/><text x="405.6" y="401" class="sans" font-size="17" font-weight="600" fill="#E6EDF3">Custom APIs</text></g><g class="bobs" style="animation-delay:-4.34s"><rect x="556.0" y="378" width="141" height="50" rx="13" fill="#080B10"/><rect x="556.0" y="376" width="141" height="50" rx="13" fill="#161D27"/><rect x="556.0" y="370" width="141" height="50" rx="13" fill="#222B37" stroke="#3D4B5E" stroke-width="1.2"/><rect x="566.0" y="371.5" width="121" height="1.5" rx="1" fill="#FFFFFF" opacity=".28"/><circle cx="578.0" cy="395" r="5" fill="#3FB6A8"/><text x="594.0" y="401" class="sans" font-size="17" font-weight="600" fill="#E6EDF3">Webhooks</text></g><text x="60" y="486" class="mono" font-size="13" fill="#9FB0C3" letter-spacing="2.5">DEVOPS</text><g class="bobs" style="animation-delay:-4.65s"><rect x="200" y="462" width="131" height="50" rx="13" fill="#080B10"/><rect x="200" y="460" width="131" height="50" rx="13" fill="#161D27"/><rect x="200" y="454" width="131" height="50" rx="13" fill="#222B37" stroke="#3D4B5E" stroke-width="1.2"/><rect x="210" y="455.5" width="111" height="1.5" rx="1" fill="#FFFFFF" opacity=".28"/><circle cx="222" cy="479" r="5" fill="#5B9DD9"/><text x="238" y="485" class="sans" font-size="17" font-weight="600" fill="#E6EDF3">Jenkins</text></g><g class="bobs" style="animation-delay:-4.96s"><rect x="346.8" y="462" width="120" height="50" rx="13" fill="#080B10"/><rect x="346.8" y="460" width="120" height="50" rx="13" fill="#161D27"/><rect x="346.8" y="454" width="120" height="50" rx="13" fill="#222B37" stroke="#3D4B5E" stroke-width="1.2"/><rect x="356.8" y="455.5" width="100" height="1.5" rx="1" fill="#FFFFFF" opacity=".28"/><circle cx="368.8" cy="479" r="5" fill="#5B9DD9"/><text x="384.8" y="485" class="sans" font-size="17" font-weight="600" fill="#E6EDF3">ArgoCD</text></g><g class="bobs" style="animation-delay:-5.27s"><rect x="483.20000000000005" y="462" width="110" height="50" rx="13" fill="#080B10"/><rect x="483.20000000000005" y="460" width="110" height="50" rx="13" fill="#161D27"/><rect x="483.20000000000005" y="454" width="110" height="50" rx="13" fill="#222B37" stroke="#3D4B5E" stroke-width="1.2"/><rect x="493.20000000000005" y="455.5" width="90" height="1.5" rx="1" fill="#FFFFFF" opacity=".28"/><circle cx="505.20000000000005" cy="479" r="5" fill="#5B9DD9"/><text x="521.2" y="485" class="sans" font-size="17" font-weight="600" fill="#E6EDF3">Nginx</text></g><g class="bobs" style="animation-delay:-5.58s"><rect x="609.2" y="462" width="162" height="50" rx="13" fill="#080B10"/><rect x="609.2" y="460" width="162" height="50" rx="13" fill="#161D27"/><rect x="609.2" y="454" width="162" height="50" rx="13" fill="#222B37" stroke="#3D4B5E" stroke-width="1.2"/><rect x="619.2" y="455.5" width="142" height="1.5" rx="1" fill="#FFFFFF" opacity=".28"/><circle cx="631.2" cy="479" r="5" fill="#5B9DD9"/><text x="647.2" y="485" class="sans" font-size="17" font-weight="600" fill="#E6EDF3">Supervisor</text></g><text x="60" y="570" class="mono" font-size="13" fill="#9FB0C3" letter-spacing="2.5">GIT</text><g class="bobs" style="animation-delay:-5.89s"><rect x="200" y="546" width="89" height="50" rx="13" fill="#080B10"/><rect x="200" y="544" width="89" height="50" rx="13" fill="#161D27"/><rect x="200" y="538" width="89" height="50" rx="13" fill="#222B37" stroke="#3D4B5E" stroke-width="1.2"/><rect x="210" y="539.5" width="69" height="1.5" rx="1" fill="#FFFFFF" opacity=".28"/><circle cx="222" cy="563" r="5" fill="#F2A35E"/><text x="238" y="569" class="sans" font-size="17" font-weight="600" fill="#E6EDF3">Git</text></g><g class="bobs" style="animation-delay:-6.20s"><rect x="305.2" y="546" width="120" height="50" rx="13" fill="#080B10"/><rect x="305.2" y="544" width="120" height="50" rx="13" fill="#161D27"/><rect x="305.2" y="538" width="120" height="50" rx="13" fill="#222B37" stroke="#3D4B5E" stroke-width="1.2"/><rect x="315.2" y="539.5" width="100" height="1.5" rx="1" fill="#FFFFFF" opacity=".28"/><circle cx="327.2" cy="563" r="5" fill="#F2A35E"/><text x="343.2" y="569" class="sans" font-size="17" font-weight="600" fill="#E6EDF3">GitHub</text></g><g class="bobs" style="animation-delay:-6.51s"><rect x="441.6" y="546" width="120" height="50" rx="13" fill="#080B10"/><rect x="441.6" y="544" width="120" height="50" rx="13" fill="#161D27"/><rect x="441.6" y="538" width="120" height="50" rx="13" fill="#222B37" stroke="#3D4B5E" stroke-width="1.2"/><rect x="451.6" y="539.5" width="100" height="1.5" rx="1" fill="#FFFFFF" opacity=".28"/><circle cx="463.6" cy="563" r="5" fill="#F2A35E"/><text x="479.6" y="569" class="sans" font-size="17" font-weight="600" fill="#E6EDF3">GitLab</text></g><g class="bobs" style="animation-delay:-6.82s"><rect x="578.0" y="546" width="152" height="50" rx="13" fill="#080B10"/><rect x="578.0" y="544" width="152" height="50" rx="13" fill="#161D27"/><rect x="578.0" y="538" width="152" height="50" rx="13" fill="#222B37" stroke="#3D4B5E" stroke-width="1.2"/><rect x="588.0" y="539.5" width="132" height="1.5" rx="1" fill="#FFFFFF" opacity=".28"/><circle cx="600.0" cy="563" r="5" fill="#F2A35E"/><text x="616.0" y="569" class="sans" font-size="17" font-weight="600" fill="#E6EDF3">Bitbucket</text></g><g class="bob" style="animation-delay:0.0s"><polygon points="1038.2,453.0 1085.0,480.0 1085.0,410.0 1038.2,383.0" fill="#222B37"/><polygon points="1085.0,480.0 1131.8,453.0 1131.8,383.0 1085.0,410.0" fill="#171E28"/><polygon points="1085.0,410.0 1131.8,383.0 1085.0,356.0 1038.2,383.0" fill="#2B3643" stroke="#FFFFFF" stroke-opacity="0.35" stroke-width="1" stroke-linejoin="round"/></g><g class="bob" style="animation-delay:-1.1s"><polygon points="1005.4,365.0 1040.0,385.0 1040.0,345.0 1005.4,325.0" fill="#4F8FD0"/><polygon points="1040.0,385.0 1074.6,365.0 1074.6,325.0 1040.0,345.0" fill="#3A6FA6"/><polygon points="1040.0,345.0 1074.6,325.0 1040.0,305.0 1005.4,325.0" fill="#79B4E6" stroke="#FFFFFF" stroke-opacity="0.35" stroke-width="1" stroke-linejoin="round"/></g><g class="bob" style="animation-delay:-2.2s"><polygon points="1094.0,285.0 1120.0,300.0 1120.0,270.0 1094.0,255.0" fill="#3FB6A8"/><polygon points="1120.0,300.0 1146.0,285.0 1146.0,255.0 1120.0,270.0" fill="#2A8279"/><polygon points="1120.0,270.0 1146.0,255.0 1120.0,240.0 1094.0,255.0" fill="#7FD6CB" stroke="#FFFFFF" stroke-opacity="0.35" stroke-width="1" stroke-linejoin="round"/></g><g class="bob" style="animation-delay:-3.3000000000000003s"><polygon points="1047.7,225.0 1065.0,235.0 1065.0,215.0 1047.7,205.0" fill="#E8843F"/><polygon points="1065.0,235.0 1082.3,225.0 1082.3,205.0 1065.0,215.0" fill="#B85F2A"/><polygon points="1065.0,215.0 1082.3,205.0 1065.0,195.0 1047.7,205.0" fill="#FFD9A8" stroke="#FFFFFF" stroke-opacity="0.35" stroke-width="1" stroke-linejoin="round"/></g></g><rect x=".75" y=".75" width="1198.5" height="642.5" rx="27.25" fill="none" stroke="#313D4D" stroke-width="1.5"/></svg>